<svg version="1.2" baseProfile="tiny-ps" xmlns="http://www.w3.org/2000/svg" viewBox="0 0 387 269" width="300" height="120">
	<title>chain</title>
	<style>
		tspan { white-space:pre }
		.shp0 { fill: #f0b90b } 
	</style>
	<path id="Layer" fill-rule="evenodd" class="shp0" d="M159.39 64L144.94 78.45L130.49 64L144.94 49.55L159.39 64ZM169.71 53.68L155.26 39.23L194.49 0L233.71 39.23L219.26 53.68L194.49 28.9L169.71 53.68ZM258.49 64L244.03 78.45L229.58 64L244.03 49.55L258.49 64ZM219.26 74.32L233.71 88.77L194.49 128L155.26 88.77L169.71 74.32L194.49 99.1L219.26 74.32ZM180.03 64L194.49 49.55L208.94 64L194.49 78.45L180.03 64ZM29.21 213.11L2.49 213.11L2.49 156.93L28.57 156.93C40.04 156.93 47.11 162.63 47.11 171.46L47.11 171.62C47.11 177.96 43.73 181.49 39.72 183.74C46.22 186.22 50.23 190 50.23 197.54L50.23 197.7C50.23 207.97 41.89 213.11 29.21 213.11ZM34.83 173.55C34.83 169.85 31.94 167.77 26.72 167.77L14.52 167.77L14.52 179.64L25.92 179.64C31.38 179.64 34.83 177.88 34.83 173.71L34.83 173.55ZM37.96 196.01C37.96 192.24 35.15 189.92 28.81 189.92L14.52 189.92L14.52 202.28L29.21 202.28C34.67 202.28 37.96 200.35 37.96 196.18L37.96 196.01ZM63.79 213.11L63.79 156.93L76.15 156.93L76.15 213.11L63.79 213.11ZM132.07 213.11L104.87 177.4L104.87 213.11L92.67 213.11L92.67 156.93L104.06 156.93L130.39 191.52L130.39 156.93L142.59 156.93L142.59 213.11L132.07 213.11ZM198.12 213.11L192.99 200.51L169.23 200.51L164.1 213.11L151.5 213.11L175.57 156.53L186.97 156.53L211.04 213.11L198.12 213.11ZM181.11 171.38L173.65 189.59L188.57 189.59L181.11 171.38ZM259.44 213.11L232.23 177.4L232.23 213.11L220.04 213.11L220.04 156.93L231.43 156.93L257.75 191.52L257.75 156.93L269.95 156.93L269.95 213.11L259.44 213.11ZM310.72 214.07C294.19 214.07 281.91 201.31 281.91 185.18L281.91 185.02C281.91 169.05 293.95 155.97 311.21 155.97C321.8 155.97 328.14 159.5 333.36 164.64L325.49 173.71C321.16 169.77 316.74 167.37 311.13 167.37C301.66 167.37 294.83 175.23 294.83 184.86L294.83 185.02C294.83 194.65 301.5 202.68 311.13 202.68C317.55 202.68 321.48 200.11 325.89 196.1L333.76 204.04C327.98 210.22 321.56 214.07 310.72 214.07ZM343.71 213.11L343.71 156.93L386.08 156.93L386.08 167.93L355.99 167.93L355.99 179.32L382.47 179.32L382.47 190.32L355.99 190.32L355.99 202.12L386.49 202.12L386.49 213.11L343.71 213.11Z" />
	<path id="Layer" class="shp0" d="M8.07 240.24C8.07 237.73 10.31 235.75 14.16 235.75C17.58 235.75 20.95 237.09 24.31 239.6L27.84 234.63C24.05 231.58 19.72 229.93 14.27 229.93C6.84 229.93 1.5 234.31 1.5 240.83C1.5 247.77 5.99 250.13 13.95 252.05C20.89 253.65 22.39 255.09 22.39 257.82C22.39 260.71 19.83 262.58 15.76 262.58C11.12 262.58 7.53 260.81 3.95 257.71L0 262.42C4.49 266.42 9.89 268.4 15.6 268.4C23.46 268.4 28.96 264.23 28.96 257.18C28.96 250.93 24.85 248.09 16.94 246.17C9.78 244.46 8.07 243.18 8.07 240.24Z" />
	<path id="Layer" class="shp0" d="M66.89 241.04L66.89 267.87L73.46 267.87L73.46 230.46L66.46 230.46L55.08 248.15L43.69 230.46L36.69 230.46L36.69 267.87L43.16 267.87L43.16 241.15L54.86 258.68L55.08 258.68L66.89 241.04Z" />
	<path id="Layer" fill-rule="evenodd" class="shp0" d="M118.89 267.87L111.94 267.87L108.15 258.84L90.46 258.84L86.61 267.87L79.88 267.87L96.34 230.19L102.43 230.19L118.89 267.87ZM99.28 238.05L92.87 253.01L105.75 253.01L99.28 238.05Z" />
	<path id="Layer" fill-rule="evenodd" class="shp0" d="M149.3 267.87L140.11 254.83L131.88 254.83L131.88 267.87L125.31 267.87L125.31 230.46L141.98 230.46C150.58 230.46 155.87 235 155.87 242.32C155.87 248.52 152.19 252.26 146.95 253.71L157.05 267.87L149.3 267.87ZM141.44 236.44L131.88 236.44L131.88 249L141.5 249C146.2 249 149.19 246.54 149.19 242.7C149.19 238.58 146.31 236.44 141.44 236.44Z" />
	<path id="Layer" class="shp0" d="M179.59 236.55L191.45 236.55L191.45 230.46L161.1 230.46L161.1 236.55L172.96 236.55L172.96 267.87L179.59 267.87L179.59 236.55Z" />
	<path id="Layer" class="shp0" d="M246.99 261.88L242.76 257.61C239.56 260.6 236.62 262.47 232.02 262.47C224.86 262.47 219.68 256.48 219.68 249.11C219.68 241.74 224.86 235.86 232.02 235.86C236.3 235.86 239.5 237.73 242.5 240.51L246.72 235.64C243.14 232.22 238.97 229.82 232.08 229.82C220.75 229.82 212.78 238.53 212.78 249.22C212.78 260.01 220.91 268.51 231.81 268.51C238.81 268.51 243.08 265.94 246.99 261.88Z" />
	<path id="Layer" class="shp0" d="M278.31 252.1L278.31 267.87L284.89 267.87L284.89 230.46L278.31 230.46L278.31 246.01L260.47 246.01L260.47 230.46L253.89 230.46L253.89 267.87L260.47 267.87L260.47 252.1L278.31 252.1Z" />
	<path id="Layer" fill-rule="evenodd" class="shp0" d="M330.3 267.87L323.35 267.87L319.56 258.84L301.87 258.84L298.02 267.87L291.29 267.87L307.75 230.19L313.84 230.19L330.3 267.87ZM310.69 238.05L304.27 253.01L317.15 253.01L310.69 238.05Z" />
	<path id="Layer" class="shp0" d="M337.09 230.46L337.09 267.87L343.66 267.87L343.66 230.46L337.09 230.46Z" />
	<path id="Layer" class="shp0" d="M380.81 257.32L360.77 231.46L354.67 231.46L354.67 268.87L361.14 268.87L361.14 242.25L381.77 268.87L387.27 268.87L387.27 231.46L380.81 231.46L380.81 257.32Z" />
</svg>