<svg version="1.2" baseProfile="tiny-ps" xmlns="http://www.w3.org/2000/svg" viewBox="0 0 300 51" width="300" height="51">
	<title>Nuevo proyecto</title>
	<defs>
		<linearGradient id="grd1" gradientUnits="userSpaceOnUse"  x1="154" y1="45" x2="154" y2="2">
			<stop offset="0" stop-color="#f700ff"  />
			<stop offset="1" stop-color="#ff0000" stop-opacity="0" />
		</linearGradient>
	</defs>
	<style>
		tspan { white-space:pre }
	</style>
	<path id="CumWoow " fill=" url(#grd1)" aria-label="CumWoow"  d="M81.41 4.4L81.13 4.9Q76.43 4.01 73.92 4.01Q68.21 4.01 62.51 6.87Q55.69 10.32 55.69 15.44Q55.69 19.01 58.36 20.84Q60.25 22.12 64.32 22.9Q70.75 16.08 78.4 11.05Q88.11 4.65 95.16 4.65Q99.47 4.65 99.47 7.68Q99.47 11.52 93.04 16.2Q84.69 22.24 69.38 24.16Q60.98 33.06 60.98 38.63Q60.98 43.67 66.99 43.67Q72.08 43.67 77.65 40.35Q83.94 36.6 83.94 31.87Q83.94 30.45 82.6 29.44Q81.38 28.5 79.93 28.5Q71.44 28.5 64.82 40.35L64.18 40.13Q66.27 34.82 70.14 31.39Q74.53 27.52 79.77 27.52Q81.71 27.52 83.24 28.75Q84.89 30.08 84.89 31.98Q84.89 37.29 78.04 41.19Q72.08 44.56 66.29 44.56Q62.43 44.56 60 42.55Q57.44 40.41 57.44 36.6Q57.44 31.23 63.46 23.93Q59.67 23.35 57.28 21.23Q54.58 18.84 54.58 15.22Q54.58 9.21 61.03 5.76Q66.32 2.95 72.92 2.95Q77.57 2.95 81.41 4.4ZM98.66 8.04Q98.66 5.45 95.6 5.45Q90.2 5.45 81.63 12.02Q74.48 17.45 70.05 23.13Q84 21.62 92.18 15.72Q98.66 11.05 98.66 8.04ZM95.02 26.16L100.19 26.16Q88.11 41.11 88.11 42.86Q88.11 43.33 88.73 43.33L89.03 43.3Q90.7 43.28 95.57 39.44Q98.36 37.26 101.64 33.06Q106.37 27.02 107.15 26.16L112.27 26.16Q108.88 30.47 105.48 34.79Q100.08 41.8 100.08 42.91Q100.08 43.36 100.89 43.36Q102.31 43.36 106.23 40.38Q109.29 38.07 111.27 36.12L111.66 36.82Q107.35 40.63 106.26 41.47Q102.45 44.33 100.14 44.33Q97.35 44.33 97.35 41.5Q97.35 39.99 97.8 38.63Q95.88 40.44 93.46 42.08Q90.2 44.28 88.64 44.28Q85.55 44.28 85.55 41.24Q85.55 38.6 89.28 33.4Q92.15 29.78 95.02 26.16ZM107.26 43.83L120.79 26.1L125.74 26.1Q123.29 29.05 123.1 29.3Q121.65 31.14 120.79 32.7Q123.13 30.39 126.05 28.3Q129.95 25.52 131.95 25.52Q134.46 25.52 134.46 28.44Q134.46 30.67 133.04 33.01Q135.04 30.53 138.18 28.27Q141.94 25.58 144.39 25.58Q147.01 25.58 147.01 28.89Q147.01 31.11 144.7 34.06Q144.14 34.79 140.33 38.96Q137.82 41.66 137.54 43.03Q137.68 43.44 138.41 43.44Q139.77 43.44 144 40.41Q147.51 37.85 149.29 36.12L149.85 36.82Q141.47 44.39 137.6 44.39Q134.79 44.39 134.79 41.22Q134.79 38.93 137.13 36.01Q138.05 34.84 141.64 31.2Q144.25 28.53 144.61 27.3Q144.5 26.49 143.97 26.49L143.86 26.49Q139.13 27.75 133.45 33.76Q129.22 38.77 124.99 43.78L119.7 43.78Q132.12 27.86 132.12 27.19Q132.12 26.44 131.56 26.44Q128.08 26.44 121.21 33.51Q116.09 38.8 112.63 43.83L107.26 43.83ZM166.21 10.82Q163.51 10.82 161.76 9.46Q160.51 8.21 159.25 6.96Q157.83 5.62 155.97 5.62Q153.13 5.62 150.29 7.93Q147.29 10.35 147.29 13.11Q147.29 17.17 151.38 17.17Q156.92 17.17 160.59 12.3L161.03 12.72Q160 15.14 157.22 16.72Q154.58 18.23 151.82 18.23Q149.35 18.23 147.84 16.98Q146.2 15.61 146.2 13.22Q146.2 9.35 150.32 6.73Q153.94 4.42 158.06 4.42Q160.78 4.42 162.76 5.73Q162.79 5.76 165.49 8.18Q166.96 9.49 168.55 9.49Q171.11 9.49 173.56 7.93Q175.76 6.51 177.96 5.06L178.12 5.06Q178.43 5.06 178.43 5.42Q178.43 5.79 177.04 7.01Q171.64 11.85 166.21 21.09Q159.14 33.17 151.91 39.27Q150.96 39.99 150.01 40.74Q148.87 41.66 148.43 42.47L148.68 42.58Q153.97 40.08 156.61 38.04Q159.17 36.1 163.09 31.59Q166.99 26.63 170.92 21.68Q176.84 14.22 181.1 10.35Q187.06 4.95 191.18 4.95Q191.62 4.95 191.76 5.12L191.71 5.48Q191.09 6.45 189.73 7.85Q188 9.6 187.59 10.07Q185.22 13 181.8 18.48Q177.85 24.77 176.2 27.02Q170.05 35.4 165.49 39.27Q164.12 40.24 161.84 42.47Q161.84 42.58 162.06 42.58Q162.57 42.58 164.29 41.77Q170.89 38.68 177.96 30.61Q182.3 25.66 185.72 21.48Q192.6 13.08 194.41 11.19Q201.06 4.09 204.65 4.09Q207.49 4.09 207.49 6.73Q207.49 7.85 206.73 8.71Q205.98 9.57 204.87 9.57Q204.26 9.57 203.73 8.88Q203.23 8.18 203.23 7.57Q203.23 6.59 204.23 6.29Q205.34 5.95 205.48 5.42L205.32 5.17L205.09 5.06L204.87 5.06Q200.83 5.06 190.09 17.56Q185.53 23.07 176.01 33.79Q170 40.08 165.71 42.11Q162.23 43.78 160.34 43.78Q160.2 43.78 159.56 43.67L159.39 43.55Q159.39 43.53 160.98 41.77Q164.04 38.38 167.24 32.78Q175.31 18.65 186.56 9.13Q187.5 8.38 188.42 7.62Q189.7 6.48 189.7 5.87Q189.7 5.73 189.65 5.73Q189.59 5.73 189.53 5.76Q184.64 8.04 179.49 13.33Q176.23 16.64 171.75 22.21Q165.24 30.2 164.29 31.31Q159.7 36.68 156.41 39.35Q151.02 43.78 146.45 43.78Q146.09 43.78 145.98 43.5Q146.26 43.08 147.98 41.27Q150.79 38.32 155.16 30.61Q159.31 23.27 163.23 18.56Q167.85 13 173.92 8.76Q172.03 9.43 170.14 10.1Q167.88 10.82 166.21 10.82ZM200.89 35.57L200.89 36.37Q200.47 36.43 199.58 36.43Q198.05 36.43 196.83 35.46Q194.46 38.85 191.37 41.3Q187.5 44.33 184.22 44.33Q180.71 44.33 180.71 40.33Q180.71 35.26 186.95 30.25Q192.9 25.46 198.11 25.46Q199 25.46 199.67 26.19Q200.36 26.88 200.36 27.75Q200.36 30.14 197.63 34.65Q198.69 35.65 200.08 35.65Q200.47 35.65 200.89 35.57ZM196.44 33.79Q196.44 31.89 197.24 30.72Q197.58 30.22 198.75 29.28Q199.58 28.61 199.58 27.91Q199.58 26.66 198.44 26.66Q195.85 26.66 189.56 33.23Q183.27 39.8 183.27 42.41Q183.27 43.61 184.47 43.61Q187.03 43.61 191.07 40.19Q193.99 37.71 196.49 34.59Q196.44 34.26 196.44 33.79ZM221.35 35.57L221.35 36.37Q220.93 36.43 220.04 36.43Q218.51 36.43 217.28 35.46Q214.92 38.85 211.83 41.3Q207.96 44.33 204.68 44.33Q201.17 44.33 201.17 40.33Q201.17 35.26 207.4 30.25Q213.36 25.46 218.56 25.46Q219.45 25.46 220.12 26.19Q220.82 26.88 220.82 27.75Q220.82 30.14 218.09 34.65Q219.15 35.65 220.54 35.65Q220.93 35.65 221.35 35.57ZM216.89 33.79Q216.89 31.89 217.7 30.72Q218.03 30.22 219.2 29.28Q220.04 28.61 220.04 27.91Q220.04 26.66 218.9 26.66Q216.31 26.66 210.02 33.23Q203.73 39.8 203.73 42.41Q203.73 43.61 204.93 43.61Q207.49 43.61 211.52 40.19Q214.44 37.71 216.95 34.59Q216.89 34.26 216.89 33.79ZM229.67 26.22L234.68 26.22Q230.5 31.48 222.4 42.25Q222.29 42.72 222.29 42.86Q222.29 43.61 223.68 43.61Q223.74 43.61 224.3 43.36Q228.75 41.58 233.68 35.87Q237.49 31.06 241.27 26.22L246.42 26.22L238.94 35.85Q236.4 39.13 236.4 39.13Q234.85 41.41 234.85 42.8Q234.85 43.55 235.99 43.55Q238.6 43.55 242.89 39.69Q246.4 36.51 248.4 33.45Q248.4 31.23 249.32 28.86Q250.49 25.88 252.35 25.88Q253.08 25.88 253.08 27.3Q253.08 28.64 249.43 33.79L249.43 34.26Q249.43 35.87 251.93 35.87Q252.52 35.87 253.08 35.79L253.08 36.49Q252.46 36.65 251.66 36.65Q249.43 36.65 248.65 34.82Q244.7 39.27 242.75 40.91Q238.74 44.28 235.29 44.28Q234.09 44.28 233.26 43.22Q232.45 42.16 232.45 40.91Q232.45 40.13 232.79 38.13Q226.86 44.22 223.07 44.22Q221.35 44.22 220.76 43.19Q220.37 42.5 220.37 40.58Q220.37 38.07 224.07 33.12Q226.86 29.67 229.67 26.22Z" />
</svg>