<svg version="1.2" baseProfile="tiny-ps" xmlns="http://www.w3.org/2000/svg" viewBox="0 0 300 51" width="300" height="51"><title>letra</title><style>tspan { white-space:pre }</style><path fill="#ffe501" aria-label="CumWoow"  d="M26.23 38.31L26.26 37.5Q26.56 29.18 30.46 21.78Q34.05 15.02 39.5 10.84Q44.9 6.72 50.02 6.72Q53.92 6.72 56.17 9.42Q58.1 11.76 58.1 15.15Q58.1 19.22 55.12 23.17Q53.39 25.45 51.44 26.45Q50.52 26.96 49.72 26.96Q48.94 26.96 48.27 26.62Q47.6 26.29 47.1 25.79Q46.07 24.7 46.07 23.84Q46.07 22.98 46.52 22.64Q51.08 19.36 52.72 15.88Q53.36 14.54 53.36 13.26Q53.36 10.56 50.8 10.56Q46.8 10.56 42.54 14.93Q38.56 18.97 35.86 25.06Q33.05 31.32 32.88 36.56L32.85 37.61Q32.85 43.88 35.5 45.83Q36.44 46.52 37.75 46.52Q39.09 46.52 40.25 46.19Q41.42 45.85 42.59 45.27Q44.49 44.29 47.44 41.9Q48.33 41.21 48.91 42.1Q49.41 42.82 49.41 43.77Q49.41 45.35 48.97 45.94Q48.55 46.49 47.49 47.27Q46.46 48.05 44.96 48.72Q41.45 50.28 38.08 50.28Q34.72 50.28 32.66 49.47Q30.6 48.64 29.18 47.11Q26.23 43.88 26.23 38.31ZM81.89 44.52Q82.53 44.52 82.53 45.16Q82.53 47.58 80.14 49.22Q78.52 50.28 76.35 50.28Q74.57 50.28 73.63 49.44Q71.93 47.94 71.93 45.77Q71.93 43.01 74.24 37.34Q69.95 43.13 68.23 45.05Q66.5 46.94 65.22 48Q62.44 50.28 60.18 50.28Q56.73 50.28 55.59 47.3Q55.26 46.38 55.26 45.21Q55.26 44.02 55.65 42.57Q56.06 41.09 56.7 39.51Q57.34 37.92 58.1 36.25L59.6 32.91Q62.49 26.48 61.74 25.29Q61.41 24.76 60.49 24.23Q60.15 24.03 60.15 23.56Q60.15 23.06 60.54 22.61Q60.96 22.17 61.6 21.83Q62.97 21.19 64.33 21.19Q65.69 21.19 66.39 21.5Q67.11 21.78 67.56 22.22Q68.48 23.14 68.48 24.26Q68.48 25.37 68.11 26.76Q67.75 28.12 67.17 29.74Q66.58 31.35 65.89 33.08Q63.97 37.59 63.3 39.03L62.27 41.18Q61.41 43.1 61.41 43.88Q61.41 44.66 61.66 44.99Q61.91 45.3 62.55 45.3Q63.22 45.3 64.08 44.68Q64.94 44.07 65.97 43.04Q67 42.01 68.11 40.68Q69.23 39.31 70.29 37.87Q72.37 35.03 73.35 33.3Q79.25 22.86 79.64 22.39Q80.53 21.19 81.45 21.19Q82.39 21.19 83.09 21.42Q83.78 21.61 84.29 22Q85.45 22.86 85.04 23.73Q78.25 37.89 77.72 41.54Q77.58 42.79 77.58 43.26Q77.58 45.38 78.86 45.38Q80.05 45.38 80.83 44.96Q81.61 44.52 81.89 44.52ZM108.44 26.45Q106.83 26.45 102.54 31.13Q99.34 34.78 97.9 36.61L95.39 39.79Q93.78 42.85 92.86 44.88L91.35 48.11Q90.77 49.3 90.32 49.81Q89.91 50.28 89.16 50.28Q88.43 50.28 87.74 50.03Q87.07 49.75 86.57 49.33Q85.51 48.44 85.51 47.38Q85.51 46.97 86.12 45.74L87.18 43.49Q87.68 42.49 88.35 40.93L89.91 37.11Q93.19 28.9 93.19 26.51Q93.19 25.23 92.36 24.62L91.8 24.23Q91.52 24.03 91.52 23.56Q91.52 23.06 91.88 22.61Q92.27 22.17 92.89 21.83Q94.14 21.19 95.39 21.19Q96.67 21.19 97.39 21.47Q98.12 21.75 98.65 22.22Q99.7 23.2 99.7 24.26Q99.7 25.31 99.43 26.4Q99.15 27.46 98.73 28.57Q98.31 29.65 97.84 30.68Q96.73 33.08 96.45 33.63Q96.2 34.16 96.31 34.02Q101.4 27.43 102.43 26.23Q104.57 23.75 105.77 22.84Q107.97 21.19 109.92 21.19Q111.89 21.19 113.06 22.42Q114.23 23.64 114.23 25.65Q114.23 27.4 113.34 29.77Q112.45 32.13 112.15 33.08L116.24 27.68L118.52 24.95Q120.58 22.64 122.14 21.92Q123.7 21.19 124.67 21.19Q125.67 21.19 126.62 21.56Q127.59 21.92 128.26 22.59Q129.68 23.95 129.68 26.2Q129.68 28.37 128.68 30.66Q127.68 32.94 126.92 34.41Q126.17 35.86 125.48 37.34Q123.44 41.76 123.44 43.9Q123.44 45.41 124.67 45.41Q125.84 45.41 126.78 44.91Q127.76 44.41 128.04 44.41Q128.62 44.41 128.62 44.99Q128.62 47.47 126.09 49.14Q124.39 50.28 122.97 50.28Q121.58 50.28 120.72 49.94Q119.85 49.61 119.16 48.89Q117.6 47.27 117.6 44.85Q117.6 42.43 118.21 40.4Q118.82 38.37 119.66 36.47Q120.49 34.55 121.33 32.97Q122.19 31.35 122.64 30.41Q123.53 28.46 123.53 27.54Q123.53 26.45 122.39 26.45Q120.88 26.45 116.99 31.44Q114.04 35.3 112.9 37L110.98 39.79Q109.36 42.85 108.5 44.88L107.08 48.11Q106.55 49.3 106.16 49.81Q105.77 50.28 105.08 50.28Q104.38 50.28 103.71 50.06Q103.07 49.83 102.6 49.47Q101.51 48.66 101.51 47.77Q101.51 46.85 102.1 45.3Q102.71 43.71 103.6 41.76L107.5 33.52Q109.58 28.93 109.58 27.71Q109.58 26.45 108.44 26.45ZM111.2 34.3Q111.23 34.3 111.23 34.27L111.25 34.22Q111.2 34.27 111.2 34.3ZM145.4 44.13L141.76 49.42Q141.2 50.22 139.78 50.22Q138.39 50.22 137.42 49.44Q136.44 48.66 135.8 47.5Q134.52 45.16 134.52 42.82Q134.52 40.48 135.02 38.03Q135.55 35.58 136.44 32.88Q137.33 30.16 138.5 27.32Q139.7 24.48 141.03 21.78Q143.76 16.16 146.46 12.04L146.16 12.04Q142.84 12.04 140 13.54Q139.31 14.07 138.67 14.07Q137.33 14.07 136.08 12.76Q133.19 9.7 139.53 7.7Q142.51 6.72 144.32 6.72Q146.16 6.72 147.27 7.31Q148.38 7.86 149.16 8.64Q150.39 9.87 150.89 11.06Q151.42 12.26 151.42 13.18Q151.42 14.07 150.86 15.6Q150.33 17.1 149.5 18.83L147.6 22.5Q146.6 24.42 145.6 26.54Q144.6 28.65 143.6 30.77Q142.59 32.88 141.81 34.89Q140.12 39.37 140.12 42.49Q140.12 44.21 140.45 45.46L143.37 40.59Q152.28 26.23 160.96 19Q163.41 16.94 165.81 15.77Q166.19 15.57 166.72 15.57Q167.25 15.57 167.84 15.71Q168.45 15.82 168.98 16.07Q170.2 16.66 170.2 17.49Q170.2 17.88 169.92 18.22L168.95 19.27Q163.38 25.17 161.46 35.75Q160.85 39.01 160.85 40.93Q160.85 42.82 160.96 43.52Q161.07 44.21 161.41 44.82Q162.16 46.21 163.66 46.21Q165.17 46.21 167 45.1Q168.84 43.99 170.7 42.04Q172.6 40.09 174.35 37.48Q176.13 34.83 177.49 31.83Q180.56 25.17 180.56 19.13Q180.56 14.49 178.5 11.26Q177.94 10.42 179.58 9.09Q181.25 7.7 183.34 7.7Q186.09 7.7 187.07 12.59Q187.4 14.21 187.4 16.82Q187.4 19.44 186.76 22.59Q186.12 25.73 184.95 28.74Q183.81 31.71 182.23 34.47Q180.67 37.23 178.8 39.62Q176.94 42.01 174.85 43.99Q172.76 45.94 170.59 47.33Q166.11 50.28 162.1 50.28Q158.43 50.28 156.62 47.38Q155.03 44.88 155.03 41.01Q155.03 34.61 157.51 28.57Q155.2 31.16 153 33.91Q147.55 41.04 145.4 44.13ZM190.13 48.11Q188.96 46.99 188.29 45.3Q187.63 43.57 187.6 41.23Q187.57 38.9 188.15 36.5Q188.77 34.11 189.85 31.88Q190.97 29.65 192.5 27.71Q194.05 25.76 195.92 24.31Q199.98 21.19 204.35 21.19Q210.09 21.19 212.12 26.23Q213.56 29.88 212.28 35.05Q211.12 39.81 208 43.79Q204.91 47.77 200.71 49.44Q198.59 50.28 196.53 50.28Q194.5 50.28 192.89 49.75Q191.3 49.22 190.13 48.11ZM195.45 34.61Q194.61 36.67 194.11 38.84Q193.64 41.01 193.67 42.96Q193.69 44.88 194.25 45.99Q194.83 47.08 196.11 47.08Q197.39 47.08 198.62 46.21Q199.87 45.32 201.04 43.88Q202.21 42.43 203.24 40.54Q204.27 38.64 205.05 36.58Q206.75 32.1 206.69 28.63Q206.69 25.56 205.44 24.73Q204.94 24.39 204.02 24.39Q203.13 24.39 201.96 25.23Q200.79 26.04 199.62 27.43Q198.45 28.82 197.37 30.68Q196.28 32.55 195.45 34.61ZM219.44 48.11Q218.27 46.99 217.6 45.3Q216.93 43.57 216.9 41.23Q216.88 38.9 217.46 36.5Q218.07 34.11 219.16 31.88Q220.27 29.65 221.8 27.71Q223.36 25.76 225.23 24.31Q229.29 21.19 233.66 21.19Q239.39 21.19 241.42 26.23Q242.87 29.88 241.59 35.05Q240.42 39.81 237.31 43.79Q234.22 47.77 230.01 49.44Q227.9 50.28 225.84 50.28Q223.81 50.28 222.19 49.75Q220.61 49.22 219.44 48.11ZM224.75 34.61Q223.92 36.67 223.42 38.84Q222.94 41.01 222.97 42.96Q223 44.88 223.56 45.99Q224.14 47.08 225.42 47.08Q226.7 47.08 227.93 46.21Q229.18 45.32 230.35 43.88Q231.52 42.43 232.55 40.54Q233.58 38.64 234.36 36.58Q236.05 32.1 236 28.63Q236 25.56 234.75 24.73Q234.24 24.39 233.33 24.39Q232.44 24.39 231.27 25.23Q230.1 26.04 228.93 27.43Q227.76 28.82 226.67 30.68Q225.59 32.55 224.75 34.61ZM255.4 46.83Q251.61 50.17 249.44 50.17Q247.3 50.17 246.46 47.94Q246.16 47.16 246.16 46.49Q246.16 44.68 246.71 42.99Q247.3 41.29 247.85 39.81L250.3 33.5Q251.72 29.63 252.03 28.1Q252.33 26.57 251.95 26.04Q251.56 25.48 251.03 25.09Q250.53 24.67 250.05 24.37Q249.61 24.03 249.61 23.56Q249.61 23.06 250 22.61Q250.41 22.17 251.08 21.83Q252.42 21.19 253.84 21.19Q255.29 21.19 256.09 21.5Q256.93 21.78 257.46 22.22Q258.49 23.14 258.49 24.45Q258.49 25.73 258.04 27.34Q257.62 28.96 256.96 30.77Q256.31 32.58 255.51 34.53L253.98 38.37Q252.17 43.01 251.78 45.32Q254.39 44.43 258.71 38.92Q263.41 32.88 267.03 25.15Q267.45 24.17 268.06 23.89Q269.06 23.42 270.59 23.48Q273.01 23.56 273.1 24.98Q273.15 25.84 272.62 26.9Q272.12 27.93 271.79 28.63L270.7 30.85Q267.45 37.45 267.45 41.57Q267.45 44.43 269.01 45.49Q269.45 45.83 270.37 45.83Q271.29 45.83 272.54 45.19Q273.79 44.52 274.93 43.38Q276.08 42.23 277.05 40.73Q278.05 39.2 278.78 37.48Q280.31 33.83 280.31 31.02Q280.31 26.2 278.5 23.92Q277.88 23.2 278.86 22.22Q279.89 21.19 282.09 21.19Q284.79 21.19 285.76 24.23Q286.15 25.37 286.15 27.65Q286.15 29.93 285.34 32.74Q284.54 35.53 283.15 38.12Q281.78 40.68 279.97 42.9Q278.19 45.13 276.21 46.77Q271.98 50.28 268.37 50.28Q262.16 50.28 262.16 42.26Q262.16 40.43 262.49 38.67Q259.21 43.46 255.4 46.83Z" /></svg>